<?xml version="1.0" standalone="no"?>
<!DOCTYPE svg PUBLIC "-//W3C//DTD SVG 20010904//EN"
 "http://www.w3.org/TR/2001/REC-SVG-20010904/DTD/svg10.dtd">
<svg version="1.0" xmlns="http://www.w3.org/2000/svg"
 width="1280.000000pt" height="640.000000pt" viewBox="0 0 1280.000000 640.000000"
 preserveAspectRatio="xMidYMid meet">
<metadata>
Created by potrace 1.15, written by Peter Selinger 2001-2017
</metadata>
<g transform="translate(0.000000,640.000000) scale(0.100000,-0.100000)"
fill="#000000" stroke="none">
<path d="M4770 5222 c-256 -147 -553 -319 -660 -382 l-195 -115 40 -6 c22 -4
834 -10 1805 -15 l1765 -7 672 389 671 389 -657 6 c-361 3 -1178 7 -1816 8
l-1161 1 -464 -268z"/>
<path d="M8735 5305 c-110 -62 -409 -234 -665 -382 l-465 -269 -3 -913 -2
-912 58 33 c32 18 336 193 675 388 l617 355 -1 870 c0 479 -3 886 -7 906 l-7
37 -200 -113z"/>
<path d="M3800 2770 l0 -1860 1860 0 1860 0 0 1860 0 1860 -1860 0 -1860 0 0
-1860z"/>
<path d="M1005 4027 c-221 -128 -510 -295 -643 -372 -133 -77 -242 -143 -242
-147 0 -5 812 -8 1805 -8 l1805 0 0 380 0 380 -1162 -1 -1163 0 -400 -232z"/>
<path d="M8785 3424 c-137 -80 -436 -255 -664 -388 l-415 -241 200 -6 c109 -4
927 -7 1817 -8 l1618 -1 307 176 c454 261 720 416 872 508 l135 81 -55 7 c-30
5 -845 10 -1810 13 l-1755 5 -250 -146z"/>
<path d="M12570 3398 c-118 -67 -431 -246 -695 -398 l-480 -277 -3 -899 c-1
-494 1 -901 5 -904 5 -4 322 175 706 397 l697 405 -1 796 c-1 439 -4 843 -8
899 l-6 102 -215 -121z"/>
<path d="M0 2155 l0 -1245 1860 0 1860 0 0 1245 0 1245 -1860 0 -1860 0 0
-1245z"/>
<path d="M7600 1810 l0 -900 1860 0 1860 0 0 900 0 900 -1860 0 -1860 0 0
-900z"/>
</g>
</svg>
